<?xml version="1.0" encoding="utf-8"?>
<!-- Generator: Adobe Illustrator 24.3.0, SVG Export Plug-In . SVG Version: 6.00 Build 0)  -->
<svg version="1.1" id="Layer_1" xmlns="http://www.w3.org/2000/svg" xmlns:xlink="http://www.w3.org/1999/xlink" x="0px" y="0px"
	 viewBox="0 0 1920 1080" style="enable-background:new 0 0 1920 1080;" xml:space="preserve">
<style type="text/css">
	.st0{fill:#44AAFF;}
	.st1{fill:#FC6100;}
	.st2{font-family:'MyriadPro-Regular';}
	.st3{font-size:177.1387px;}
</style>
<polygon class="st0" points="1805.1,276.5 1805.1,335.9 1740.9,367.1 1676.6,335.9 1676.6,314.3 1662,314.3 1662,343 1740.9,381.2 
	1819.7,343 1819.7,276.5 "/>
<polygon class="st0" points="1518.6,338 1454.4,367.7 1390.1,338 1390.1,281.4 1375.5,281.4 1375.5,344.8 1454.4,381.2 
	1533.2,344.8 1533.2,313.4 1518.6,313.4 "/>
<polygon class="st0" points="1661.7,392.9 1597.5,422.6 1533.2,392.9 1533.2,336.2 1518.6,336.2 1518.6,399.6 1597.5,436.1 
	1676.3,399.6 1676.3,336.2 1661.7,336.2 "/>
<polygon class="st0" points="1542.5,219.4 1597.5,191.9 1652.5,219.4 1652.5,274.4 1597.5,301.9 1542.5,274.4 "/>
<polygon class="st0" points="1685.9,164.4 1740.9,136.9 1795.9,164.4 1795.9,219.4 1740.9,246.9 1685.9,219.4 "/>
<polygon class="st0" points="1399.4,164.4 1454.4,136.9 1509.4,164.4 1509.4,219.4 1454.4,246.9 1399.4,219.4 "/>
<polygon class="st0" points="1542.5,75.2 1597.5,47.7 1652.5,75.2 1652.5,130.2 1597.5,157.7 1542.5,130.2 "/>
<g>
	<g>
		<path class="st1" d="M264,323.2v15.2c0,44.6-11.1,107-133.8,107C22.8,445.4,0,400.3,0,340.8V144.3c0-60.1,40.6-100,131.7-100
			c108.8,0,129.5,48.4,129.5,102.5v17.4h-89.7v-24.5c0-25.9-9-40.7-40.2-40.7c-30.5,0-40.4,14.2-40.4,40.8v206
			c0,25.4,7.6,45.2,41.5,45.2c32.3,0,40.9-17.2,40.9-46.2v-21.8L264,323.2L264,323.2z"/>
		<path class="st1" d="M402.5,50v296.4c0,28.4,13.9,44.6,48.5,44.6c35.5,0,46.9-18.2,46.9-44.6V50h89.6v295.2
			c0,61.5-41.4,100.1-138.2,100.1c-92.3,0-136.3-33.5-136.3-99.9V50H402.5z"/>
		<path class="st1" d="M752.4,265.4v174.2h-89.5V50h124c88.3,0,140.4,23.7,140.4,93.9v14.8c0,59.9-36.5,75.1-59.1,81.2
			c33.9,10.7,53.2,27.1,53.2,79.9c0,32.8-0.8,96.1,5.3,119.7h-86.5c-7.7-23.6-6-87.6-6-115.8c0-47.5-9-58.4-61-58.4
			C773.2,265.4,752.4,265.4,752.4,265.4z M752.4,215.8h20.5c47.4,0,64.8-12,64.8-54.4v-13.4c0-30.1-9.3-48.4-59.9-48.4h-25.3V215.8z
			"/>
		<path class="st1" d="M1204.9,261.7h-127.5v122.7h147l-11.3,55.2H987.9V50H1212v55.8h-134.6v100.6h127.5
			C1204.9,206.4,1204.9,261.7,1204.9,261.7z"/>
	</g>
</g>
<g>
	<g>
		<path class="st1" d="M84.7,766.7V792c0,30.6,12.2,47.5,44.3,47.5c32.9,0,41.4-23.4,41.4-50c0-44.1-12.6-57.8-71.3-92.5
			C40,662.1,8.6,639.8,8.6,579c0-54.1,21.8-108.7,120.6-108.7c101,0.1,116.6,54.1,116.6,98.7V591h-83.7v-20.2
			c0-28.6-6.4-45.9-34.5-45.9c-27.4,0-34.7,17.9-34.7,45.1c0,29,7.4,43.2,55.4,69.7c81.9,45.4,107,71.8,107,140.5
			c0,58.2-27.2,113.4-129.4,113.4C24.7,893.5,0,845.1,0,791v-24.3H84.7z"/>
		<path class="st1" d="M360,535.7h-87.8v-58.8h260.7v58.8h-88.4v351.8H360V535.7z"/>
		<path class="st1" d="M654,703.8v183.6h-84.4V476.9h117c83.3,0,132.4,25,132.4,98.9v15.6c0,63.1-34.5,79.1-55.8,85.6
			c32,11.3,50.2,28.5,50.2,84.2c0,34.6-0.8,101.2,5,126.2h-81.6c-7.3-24.8-5.7-92.3-5.7-122.1c0-50-8.5-61.5-57.6-61.5L654,703.8
			L654,703.8z M654,651.6h19.3c44.7,0,61.1-12.6,61.1-57.3v-14.1c0-31.8-8.8-51-56.5-51H654V651.6z"/>
		<path class="st1" d="M961.2,476.9v410.6h-84.4V476.9H961.2z"/>
		<path class="st1" d="M1035.7,887.4V476.9h97.7c21.8,58,87.2,260.6,93,282.4h0.9c-3.9-50.5-4.1-108.2-4.1-175.8V476.9h77.9v410.6
			h-94.1c-17.3-49.1-90.1-274.3-95.6-291.5h-0.8c4,49.7,3.6,105.3,3.6,179.2v112.2L1035.7,887.4L1035.7,887.4z"/>
		<path class="st1" d="M1622.2,887.4h-65.8c-2.3-7.3-3.9-22.1-4.7-30.8c-15.1,27.3-46.9,36.8-82.3,36.8
			c-80.6,0-106.5-43.7-106.5-113.4V587.2c0-67.1,34.8-116.4,129.9-116.4c114.9,0,127.1,63.4,127.1,107.5v13.3h-84.4v-16.4
			c0-21.7-4.2-46.7-42.8-46.7c-30.7,0-43.9,16-43.9,48.7v210.1c0,32.9,12.6,50,43.2,50c36.6,0,45.5-23,45.5-65.2v-59.9h-47.9v-54.5
			h132.3v229.7H1622.2z"/>
		<path class="st1" d="M1749.2,766.7V792c0,30.6,12.2,47.5,44.3,47.5c32.9,0,41.4-23.4,41.4-50c0-44.1-12.6-57.8-71.3-92.5
			c-58.9-34.9-90.3-57.2-90.3-118c0-54.1,21.8-108.7,120.6-108.7c101,0.1,116.6,54.1,116.6,98.7V591h-83.6v-20.2
			c0-28.6-6.4-45.9-34.5-45.9c-27.4,0-34.7,17.9-34.7,45.1c0,29,7.4,43.2,55.4,69.7c81.9,45.4,107,71.8,107,140.5
			c0,58.2-27.2,113.4-129.4,113.4c-101.3,0-126-48.4-126-102.5v-24.3H1749.2z"/>
	</g>
</g>
<text transform="matrix(1.3043 0 0 1 9.765625e-04 1035.7155)" class="st0 st2 st3">Come.Connect.Cure</text>
</svg>
